# xmcd CD database file
#
# Track frame offsets:
#	150
#	29555
#	45580
#	71963
#	106541
#	120990
#	135095
#	165600
#	200384
#	213161
#
# Disc length: 3262 seconds
#
# Revision: 0
# Processed by: cddbd v1.5.2PL0 Copyright (c) Steve Scherf et al.
# Submitted via: CDex 1.70beta2
#
DISCID=7e0cbc0a
DTITLE=Oscar Peterson - Date with Oscar CD 6
DYEAR=1900
DGENRE=Jazz
TTITLE0=Je ne sais pas
TTITLE1=lover come back to me
TTITLE2=Ad lib blues
TTITLE3=Laura
TTITLE4=What a little moonlight can do
TTITLE5=Don't get around much any more
TTITLE6=That black old magic
TTITLE7=tea for two
TTITLE8=Pennies from heaven
TTITLE9=Indiana
EXTD=
EXTT0=
EXTT1=
EXTT2=
EXTT3=
EXTT4=
EXTT5=
EXTT6=
EXTT7=
EXTT8=
EXTT9=
PLAYORDER=
